#!OML:ASF H:\Terrain\Patient Classification 1\PLAYGROUND\JustinFriday\JustinFriday.ASF
:FULLY-SPECIFIED
:DEGREES
1389
root 12.6678 20.5012 23.8665 187.278 -3.06221 -176.739
lowerback 13.7292 -0.0860169 1.88863
upperback -6.80179 0.334327 2.10445
thorax -15.4342 0.0157322 1.24704
lowerneck 10.1261 -2.40916 -8.5525
upperneck 11.7615 -6.06481 7.95206
head 2.33479 -3.82433 3.84242
rclavicle -1.2424e-016 4.77083e-015
rhumerus 101.872 -14.0582 -63.1614
rradius 38.8857
rwrist 30.1232
rhand -34.5345 -12.7907
rfingers 7.12502
rthumb -7.69548 -402.631
lclavicle -1.2424e-016 4.77083e-015
lhumerus 101.56 14.8826 65.8551
lradius 31.1392
lwrist -48.3065
lhand -35.0062 -10.5594
lfingers 7.12502
lthumb -8.15073 19.2634
rfemur -3.81174 -9.15806 17.9155
rtibia 73.9911
rfoot -7.92922 -12.5137
rtoes 11.8988
lfemur 8.70374 7.70204 -9.03426
ltibia 70.7123
lfoot -2.53597 1.59335
ltoes -21.1426
1390
root 12.6804 20.469 23.8734 187.656 -3.10021 -177.337
lowerback 13.2882 -0.140715 1.41232
upperback -6.91101 0.117956 1.8525
thorax -15.2822 -0.0530546 1.28522
lowerneck 10.3382 -2.58595 -7.66751
upperneck 11.108 -6.00843 6.52962
head 2.2825 -3.77359 3.56949
rclavicle 1.00945e-014 -1.07344e-014
rhumerus 102.067 -14.241 -63.1311
rradius 38.6373
rwrist 30.0057
rhand -34.3921 -12.928
rfingers 7.12502
rthumb -7.55801 -402.773
lclavicle 1.00945e-014 -1.07344e-014
lhumerus 101.836 15.0253 65.7125
lradius 30.8727
lwrist -48.3295
lhand -34.9901 -10.7004
lfingers 7.12502
lthumb -8.13518 19.123
rfemur -2.12116 -8.93774 17.3178
rtibia 73.31
rfoot -7.91775 -12.6334
rtoes 11.4068
lfemur 9.98759 7.54082 -9.50045
ltibia 70.2187
lfoot -2.18176 1.2523
ltoes -20.7282
1391
root 12.6896 20.4439 23.8831 188.06 -3.11026 -177.49
lowerback 12.9267 -0.134474 1.28868
upperback -7.06726 0.067605 1.75655
thorax -15.24 -0.0768241 1.26021
lowerneck 10.3937 -2.74139 -7.46951
upperneck 10.8916 -6.14238 6.24974
head 2.19161 -3.82214 3.43571
rclavicle 1.2921e-015 2.04748e-014
rhumerus 102.274 -14.4169 -63.0761
rradius 38.3552
rwrist 29.9729
rhand -34.2714 -12.9774
rfingers 7.12502
rthumb -7.44158 -402.827
lclavicle 1.2921e-015 2.04748e-014
lhumerus 102.195 14.9363 65.9531
lradius 30.542
lwrist -48.6293
lhand -35.0071 -10.9152
lfingers 7.12502
lthumb -8.15166 18.9075
rfemur -0.575019 -8.54439 17.2841
rtibia 72.6318
rfoot -7.8708 -12.631
rtoes 10.6039
lfemur 11.1324 7.44219 -9.42844
ltibia 69.8211
lfoot -1.6975 0.875343
ltoes -19.7129
1392
root 12.7013 20.4239 23.8944 188.583 -3.00475 -177.46
lowerback 12.4404 -0.0459721 1.16788
upperback -7.28794 0.130435 1.78026
thorax -15.1984 -0.0464531 1.34098
lowerneck 9.99301 -2.76029 -7.42719
upperneck 11.3 -6.17849 6.20341
head 2.39958 -3.84466 3.39753
rclavicle 7.51033e-015 1.13307e-014
rhumerus 102.413 -14.5048 -63.0268
rradius 38.1662
rwrist 29.9203
rhand -34.1781 -12.8836
rfingers 7.12502
rthumb -7.35144 -402.736
lclavicle 7.51033e-015 1.13307e-014
lhumerus 102.486 14.8749 66.2465
lradius 30.281
lwrist -48.8566
lhand -34.9615 -11.1176
lfingers 7.12502
lthumb -8.10765 18.7068
rfemur 0.678931 -7.95761 17.5668
rtibia 72.0296
rfoot -8.14818 -12.1825
rtoes 10.4229
lfemur 12.0927 7.48474 -9.12977
ltibia 69.5011
lfoot -1.12022 0.501937
ltoes -18.687
1393
root 12.7153 20.4153 23.8927 188.973 -2.87084 -177.59
lowerback 12.0331 0.0770075 0.791553
upperback -7.46427 0.201937 1.82007
thorax -15.1549 0.0179958 1.58182
lowerneck 10.0669 -2.7867 -7.41479
upperneck 11.3686 -6.23293 6.13676
head 2.41133 -3.87996 3.37286
rclavicle -3.55328e-015 1.53064e-014
rhumerus 102.473 -14.7295 -62.6644
rradius 38.0297
rwrist 29.5337
rhand -34.158 -12.8702
rfingers 7.12502
rthumb -7.33207 -402.723
lclavicle -3.55328e-015 1.53064e-014
lhumerus 102.612 15.0539 66.1819
lradius 30.1251
lwrist -48.5883
lhand -34.8748 -11.176
lfingers 7.12502
lthumb -8.02391 18.6517
rfemur 1.99562 -7.4847 17.6147
rtibia 71.4971
rfoot -8.06252 -11.5734
rtoes 10.9076
lfemur 13.1084 7.56396 -9.04404
ltibia 69.1983
lfoot -0.401928 0.18599
ltoes -19.7727
1394
root 12.7273 20.4096 23.8918 189.252 -2.82754 -177.592
lowerback 12.2302 0.0814715 0.83585
upperback -7.8937 0.171874 1.69979
thorax -15.8014 -0.0220552 1.44642
lowerneck 10.4785 -2.70313 -7.21122
upperneck 11.2816 -6.16409 6.23619
head 2.30074 -3.85638 3.3802
rclavicle -2.98177e-015 5.36719e-015
rhumerus 102.12 -14.7462 -62.5318
rradius 37.8585
rwrist 29.2545
rhand -34.0851 -12.9654
rfingers 7.12502
rthumb -7.26175 -402.821
lclavicle -2.98177e-015 5.36719e-015
lhumerus 102.184 15.2833 65.2014
lradius 29.9919
lwrist -47.819
lhand -34.8073 -11.13
lfingers 7.12502
lthumb -7.95882 18.7002
rfemur 3.36335 -7.13102 17.7404
rtibia 71.0156
rfoot -7.74014 -11.1116
rtoes 12.4147
lfemur 14.0391 7.66643 -8.79406
ltibia 69.0025
lfoot 0.392641 -0.133728
ltoes -21.4245
1395
root 12.7411 20.3995 23.902 189.616 -2.84386 -177.362
lowerback 11.6706 0.0445561 1.10764
upperback -7.89831 0.140732 1.63086
thorax -15.4451 -0.0767777 1.21704
lowerneck 10.4361 -2.70826 -6.85802
upperneck 10.9342 -6.06419 6.2438
head 2.16904 -3.76946 3.31726
rclavicle -3.97569e-016 -4.17448e-015
rhumerus 102.454 -15.008 -62.7667
rradius 37.6731
rwrist 29.2109
rhand -33.9947 -13.0728
rfingers 7.12502
rthumb -7.17442 -402.931
lclavicle -3.97569e-016 -4.17448e-015
lhumerus 102.462 15.6532 64.5283
lradius 29.8612
lwrist -47.2787
lhand -34.7933 -11.0957
lfingers 7.12502
lthumb -7.94527 18.735
rfemur 4.51765 -6.70438 18.2189
rtibia 70.6203
rfoot -7.5761 -10.6847
rtoes 13.8047
lfemur 14.7475 7.70355 -8.26799
ltibia 68.9723
lfoot 0.854369 -0.560811
ltoes -21.2938
1396
root 12.7555 20.3939 23.9052 189.979 -2.86018 -177.146
lowerback 11.169 0.0128322 1.34195
upperback -7.96548 0.106994 1.60307
thorax -15.2041 -0.12774 1.05921
lowerneck 10.3724 -2.68239 -6.62561
upperneck 10.7856 -5.96658 6.20773
head 2.11217 -3.70053 3.25971
rclavicle 1.84497e-015 -1.11319e-014
rhumerus 102.73 -15.2327 -62.8233
rradius 37.4582
rwrist 28.9652
rhand -33.9863 -13.0865
rfingers 7.12502
rthumb -7.16631 -402.945
lclavicle 1.84497e-015 -1.11319e-014
lhumerus 102.648 15.9318 64.0994
lradius 29.7427
lwrist -46.9647
lhand -34.7654 -11.128
lfingers 7.12502
lthumb -7.91832 18.7037
rfemur 5.56951 -6.29803 18.7065
rtibia 70.3065
rfoot -7.12637 -10.2503
rtoes 12.8672
lfemur 15.4247 7.65694 -7.79406
ltibia 69.0083
lfoot 1.04485 -1.03844
ltoes -22.5807
1397
root 12.7662 20.3973 23.9072 190.239 -2.80926 -177.132
lowerback 10.8417 0.00474045 1.40639
upperback -8.01587 0.0810735 1.54731
thorax -15.0549 -0.155677 0.964783
lowerneck 10.3616 -2.66981 -6.69884
upperneck 10.6379 -5.95256 6.48906
head 2.07676 -3.68728 3.37349
rclavicle 9.75287e-016 1.67973e-014
rhumerus 102.922 -15.5316 -62.6024
rradius 37.3096
rwrist 28.5178
rhand -33.9862 -13.0731
rfingers 7.12502
rthumb -7.16621 -402.932
lclavicle 9.75287e-016 1.67973e-014
lhumerus 102.749 16.3253 63.6699
lradius 29.6463
lwrist -46.5453
lhand -34.7416 -11.1844
lfingers 7.12502
lthumb -7.89539 18.6481
rfemur 6.65708 -5.91506 18.8935
rtibia 70.0659
rfoot -6.6432 -9.72552
rtoes 12.495
lfemur 16.1049 7.66451 -7.53981
ltibia 69.0977
lfoot 1.62339 -1.25025
ltoes -24.084
1398
root 12.7767 20.408 23.9051 190.496 -2.60706 -177.493
lowerback 10.5812 0.0771865 0.95449
upperback -8.05846 0.0783133 1.45583
thorax -14.9396 -0.118655 1.11553
lowerneck 10.3159 -2.69829 -6.78233
upperneck 10.5953 -6.00113 6.66509
head 2.08409 -3.70993 3.45098
rclavicle 5.08143e-015 -1.09332e-015
rhumerus 103.088 -15.8492 -62.218
rradius 37.1705
rwrist 28.1255
rhand -33.9314 -13.166
rfingers 7.12502
rthumb -7.11339 -403.026
lclavicle 5.08143e-015 -1.09332e-015
lhumerus 102.779 16.8003 63.1711
lradius 29.5562
lwrist -45.9426
lhand -34.7485 -11.1719
lfingers 7.12502
lthumb -7.90204 18.6604
rfemur 7.72367 -5.489 18.6116
rtibia 69.8729
rfoot -6.16913 -9.15911
rtoes 10.4188
lfemur 16.727 7.8054 -7.68273
ltibia 69.2503
lfoot 2.15798 -1.47383
ltoes -20.1224
1399
root 12.788 20.4214 23.8943 190.745 -2.4857 -177.726
lowerback 10.4013 0.145007 0.592404
upperback -8.13463 0.0939797 1.4489
thorax -14.9178 -0.07879 1.30869
lowerneck 10.1928 -2.68739 -6.70839
upperneck 10.5681 -5.93193 6.43772
head 2.07904 -3.66373 3.35351
rclavicle -2.24254e-015 1.94809e-014
rhumerus 103.281 -16.0048 -61.942
rradius 36.9908
rwrist 28.0096
rhand -33.8244 -13.2555
rfingers 7.12502
rthumb -7.01002 -403.119
lclavicle -2.24254e-015 1.94809e-014
lhumerus 102.779 17.1204 62.9101
lradius 29.4833
lwrist -45.5495
lhand -34.7634 -11.1556
lfingers 7.12502
lthumb -7.91645 18.6761
rfemur 8.76436 -5.15398 18.4971
rtibia 69.6297
rfoot -5.4916 -8.67497
rtoes 12.437
lfemur 17.2811 7.95497 -7.57654
ltibia 69.5364
lfoot 2.28885 -2.06868
ltoes -21.2821
